PathFileType	4	(X/Y/Z)	RBDS022\RBDS022runT25.trc
DataRate	CameraRate	NumFrames	NumMarkers	Units	OrigDataRate	OrigDataStartFrame	OrigNumFrames
150.000000	150.000000	5	33	mm	150.000000	3375	4500
Frame#	Time	L.ASIS			L.Heel.Bottom			L.Heel.Lateral			L.Heel.Top			L.Iliac.Crest			L.MT1			L.MT5			L.PSIS			L.Shank.Bottom.Lateral			L.Shank.Bottom.Medial			L.Shank.Top.Lateral			L.Shank.Top.Medial			L.Thigh.Bottom.Lateral			L.Thigh.Bottom.Medial			L.Thigh.Top.Lateral			L.Thigh.Top.Medial			R.ASIS			R.ASY			R.Heel.Bottom			R.Heel.Lateral			R.Heel.Top			R.Iliac.Crest			R.MT1			R.MT5			R.PSIS			R.Shank.Bottom.Lateral			R.Shank.Bottom.Medial			R.Shank.Top.Lateral			R.Shank.Top.Medial			R.Thigh.Bottom.Lateral			R.Thigh.Bottom.Medial			R.Thigh.Top.Lateral			R.Thigh.Top.Medial			
		X1	Y1	Z1	X2	Y2	Z2	X3	Y3	Z3	X4	Y4	Z4	X5	Y5	Z5	X6	Y6	Z6	X7	Y7	Z7	X8	Y8	Z8	X9	Y9	Z9	X10	Y10	Z10	X11	Y11	Z11	X12	Y12	Z12	X13	Y13	Z13	X14	Y14	Z14	X15	Y15	Z15	X16	Y16	Z16	X17	Y17	Z17	X18	Y18	Z18	X19	Y19	Z19	X20	Y20	Z20	X21	Y21	Z21	X22	Y22	Z22	X23	Y23	Z23	X24	Y24	Z24	X25	Y25	Z25	X26	Y26	Z26	X27	Y27	Z27	X28	Y28	Z28	X29	Y29	Z29	X30	Y30	Z30	X31	Y31	Z31	X32	Y32	Z32	X33	Y33	Z33	

3376	22.5	2267.335004274035	994.7510672479955	914.197804740804	2285.886690364585	36.15884456431528	991.1602857398129	2308.634181327481	60.67834860203794	941.9222996938457	2284.628946597596	82.22715842871183	988.6450810753032	2189.345633448294	1084.686304243761	864.8629148392467	2496.734944712547	96.7817273485703	1008.553238949384	2459.829934856278	71.46119364780351	901.7936105483008	2100.295571278189	1032.336703059868	977.1375973194796	2324.436550272883	198.4261995976239	915.1672206613699	2285.483956099916	201.8974464080783	954.6139877901225	2311.234329487981	275.6165812924026	896.3815815989469	2273.391583472408	279.7607821142521	934.7611411404106	2303.160015507066	636.2476072784792	864.1097699385836	2243.779898816168	616.846047156703	901.5916065809313	2259.088455103192	734.6967894945897	845.505082423586	2202.364296189154	716.2915858597898	880.9368091179243	2263.203998160701	990.2193687073816	1147.262405901153	1882.519862264091	105.7664495585838	1071.938533482867	1723.877621716797	209.1945565678254	1033.113811708766	1749.830262136094	200.8381183265141	1083.783981669313	1760.620525182681	232.3658933368744	1039.364081854681	2223.609303327992	1068.631889498384	1180.409772680599	1871.634925578177	60.38473144915363	1022.555800279225	1835.55521357569	73.37914990060369	1131.165209374311	2106.240574939385	1035.157089747071	1065.08712648359	1841.926972972551	268.0434955609539	1114.008856738697	1824.15065893532	295.5837843929321	1074.501311223141	1890.514713389718	334.4279858274523	1136.090758286901	1865.936851393857	361.2858756944474	1097.255271409345	2105.964178956955	626.8760672196901	1178.640560879354	2050.191681115341	647.6980106255785	1139.194659263719	2129.568817616616	732.8133450500555	1200.87974866681	2073.658813979903	751.6850816596366	1165.283133135261	
3377	22.50666666666667	2267.826562654051	995.3024269520828	914.1873445089877	2299.588289674267	31.92710737862438	993.7824679832569	2321.623895522707	56.67806452736178	944.3469923242903	2296.364709235111	77.94131407967015	990.5821596434029	2189.964902785024	1085.9039646619	864.7358990117078	2507.931361487806	101.9177741784332	1011.345551048713	2472.555641299679	73.19511875993292	904.7830105020512	2101.223529255821	1033.421446678175	976.6263851955067	2331.430439305312	196.090851752431	916.8265976881656	2292.769280134049	198.405416586916	956.6829279250529	2315.591419100929	272.782678334286	897.9558617629392	2277.938878094877	275.8078504685169	936.6729308140229	2300.003885484613	634.8527096603782	863.9944788787042	2240.622090456758	616.44078602869	901.9807393254478	2256.936800880484	733.7304740237954	845.0273311304553	2200.414440015982	716.3310926942571	881.1982213374631	2263.93965506943	991.2941413084829	1146.860651128622	1872.664371207653	109.1462522562045	1072.435293418667	1719.19891536809	219.9242762261425	1033.955688491586	1744.584122040719	210.1942592175142	1084.635131632053	1757.029211329169	241.3001920413293	1040.359588290347	2224.42232938186	1070.682990316878	1179.616845678112	1859.961659341871	63.72042973533188	1023.360472510784	1824.125295898542	78.37424408300335	1131.475607658943	2107.182668050868	1036.519801791258	1064.688945759144	1837.782379645052	273.0904746960381	1114.993150776583	1820.184543065987	300.9319855118925	1075.649897204298	1887.597260015847	338.6993535421156	1136.721668267233	1863.10366188132	365.9875478822195	1098.136987210177	2106.897518584885	627.8445988967883	1177.806401132386	2051.178661456788	648.9534511217325	1138.532038232407	2131.026126121852	733.601998228824	1200.274834642781	2075.052174841606	752.7664657275266	1164.979555910431	
3378	22.51333333333334	2268.211072102887	995.3841610270399	914.0496760618232	2310.712326608872	28.42594435499236	996.3203130002945	2332.159678495202	53.36096757003117	946.7375368517287	2305.892101761845	74.34730525919561	992.5730023124804	2190.582264051997	1086.32649082644	864.4796467793939	2516.807040299843	106.0982496943426	1013.916175317332	2482.717555314821	74.55997789502351	907.5956001412869	2102.005625188459	1033.933745149404	976.2166370414269	2336.906756857297	193.9219938006531	918.5328860002719	2298.562863607685	195.2623350901837	958.7898776647711	2318.8720182436	270.140633797199	899.6247274582736	2281.439966100091	272.2284582909884	938.6648044225417	2297.111912658702	633.270708452915	864.1021451758243	2237.723940205542	615.7781600352597	902.5312936991999	2254.938172504217	732.5019706076512	844.6992988449409	2198.627712500996	716.0416090749585	881.5532511441454	2264.653206069081	991.9238262487697	1146.452084758306	1863.222413027894	112.8132317089731	1072.918705406259	1715.108822281444	230.4810362450645	1034.674460416713	1739.870059527433	219.4601865665346	1085.375453447879	1753.917042958384	250.068968892637	1041.230946841901	2224.862879395549	1072.167278067695	1178.924251903736	1848.745549004126	67.40227132931238	1024.165734615396	1813.227806768791	83.70547942639101	1131.783792987872	2108.039732044876	1037.318875578059	1064.371496167729	1834.212205711176	278.0325309141501	1115.902162197995	1816.848075056816	306.2514181389007	1076.76416684318	1885.426229951488	342.6815531505144	1137.288548992855	1861.073004197037	370.4961148150779	1098.988546141476	2108.872938946987	627.8972430051505	1176.852369073965	2053.041838769368	649.1186415591249	1137.934461936309	2133.251886235283	733.5445939746215	1199.546208193823	2077.022143596972	752.8263639179152	1164.790608749692	
3379	22.52	2268.474609801796	995.0296227297493	913.7362579305235	2318.966390018051	25.5838227095629	998.7381996620444	2339.9876473381	50.66126688004891	949.0719134829206	2312.988028602763	71.39819440665836	994.6143872415402	2191.173973838152	1085.986240834586	864.0861007995073	2523.261804839789	108.9650333866423	1016.318191898968	2490.147082318077	75.29797344770581	910.2499254083222	2102.622558409578	1033.849131606539	975.9214477188092	2340.800574778487	191.8166641320681	920.271376997623	2302.744740456381	192.3863020040277	960.8751343472965	2321.049774734292	267.6253740013284	901.3435842102283	2283.819749693921	268.9769424076338	940.6533611863604	2294.5070677589	631.5301436057331	864.4733754905219	2235.08520832665	614.8647689934686	903.2408781191533	2253.111581503557	731.0392015457059	844.5632460938048	2196.99542403848	715.4343936336556	882.0084298825452	2265.362243214777	992.0707726906662	1146.009106398478	1854.280302770971	116.7975952894536	1073.42708407104	1711.582547355659	240.8522861916234	1035.291723643173	1735.693198198502	228.6403555331639	1086.023863530351	1751.258499900418	258.686004820885	1041.988100989717	2224.98540895956	1073.030555504273	1178.326243629045	1838.085478321193	71.47165656069066	1024.982200800163	1802.967422257362	89.3971457406026	1132.12812408487	2108.80290457779	1037.50268115328	1064.153344283921	1831.224100700261	282.9290629905576	1116.728250733907	1814.174934909237	311.5924104758622	1077.817437404412	1884.000700796037	346.4190190695363	1137.787363509584	1859.876618346048	374.8468673306969	1099.783141354574	2111.876498919592	626.9943783716946	1175.830047380576	2055.767030597041	648.1367167817826	1137.434017744493	2136.197671510222	732.6113240136103	1198.731081985881	2079.53082644325	751.8159633013603	1164.724810443259	
3380	22.52666666666667	2268.605895843098	994.2680928436423	913.2152839574534	2324.1284579188	23.33259743656428	1001.00010102987	2344.921590872665	48.51104975778901	951.3251432729071	2317.481950762081	69.04569685136727	996.6922889471621	2191.706909160831	1084.933322253711	863.5621961126818	2527.223070183537	110.2303898848627	1018.61314698548	2494.734298369843	75.19745074336662	912.7681215014742	2103.060783270845	1033.150084538834	975.751901788191	2343.072578143031	189.6819778943806	922.0191903851423	2305.223845685178	189.7029796636145	962.8715043554345	2322.117307074044	265.1740694951886	903.0596373681506	2285.024246200586	266.0065440730173	942.547690381173	2292.21789302948	629.6485205399359	865.1202322785773	2232.713472078935	613.6964132698433	904.0819067231157	2251.485110646048	729.3609902271151	844.6402058900619	2195.516647522344	714.5106743843752	882.548861422551	2266.080324083347	991.7069343604251	1145.510567031463	1845.942824222894	121.1322230745193	1073.999996904442	1708.60990607547	251.0343658782279	1035.839378243975	1732.073364570628	237.748889482798	1086.609019047704	1749.044482242157	267.1734280017565	1042.649045455393	2224.863470295626	1073.22751814072	1177.816151539001	1828.097134584675	75.9681355589981	1025.826635911047	1793.463208191875	95.47649425154589	1132.550337707243	2109.463200113892	1037.02645967339	1064.049151559875	1828.841326073669	287.8435449512004	1117.470757404995	1812.20863421547	317.0043065793383	1078.789655750203	1883.328074386669	349.9673441340686	1138.217088543367	1859.548339337437	379.0804362170675	1100.497974769979	2115.866307897164	625.1302994141878	1174.792150122391	2059.321240584097	645.9907102729607	1137.051983232001	2139.791686644566	730.8006192014969	1197.873332847067	2082.530465498339	749.7206348802727	1164.779591125592	
